<mxfile host="app.diagrams.net" modified="2020-11-16T05:22:28.501Z" agent="5.0 (Macintosh; Intel Mac OS X 10_15_7) AppleWebKit/537.36 (KHTML, like Gecko) Chrome/86.0.4240.193 Safari/537.36" etag="0QgjSPMYlhU_v4isIqe-" version="13.9.9" type="github">
  <diagram id="Q4VYiyE0thvD5H8aCotu" name="Page-1">
    <mxGraphModel dx="1406" dy="694" grid="1" gridSize="10" guides="1" tooltips="1" connect="1" arrows="1" fold="1" page="1" pageScale="1" pageWidth="827" pageHeight="1169" math="0" shadow="0">
      <root>
        <mxCell id="0" />
        <mxCell id="1" parent="0" />
        <mxCell id="ppAjksbt9P0SLpbkr_-q-12" style="rounded=0;orthogonalLoop=1;jettySize=auto;html=1;dashed=1;endArrow=block;endFill=0;entryX=0.25;entryY=1;entryDx=0;entryDy=0;endSize=12;strokeWidth=1;" parent="1" source="ppAjksbt9P0SLpbkr_-q-8" target="ppAjksbt9P0SLpbkr_-q-16" edge="1">
          <mxGeometry relative="1" as="geometry">
            <mxPoint x="340" y="310" as="targetPoint" />
          </mxGeometry>
        </mxCell>
        <mxCell id="ppAjksbt9P0SLpbkr_-q-8" value="ConcretComponent" style="swimlane;fontStyle=1;align=center;verticalAlign=top;childLayout=stackLayout;horizontal=1;startSize=26;horizontalStack=0;resizeParent=1;resizeParentMax=0;resizeLast=0;collapsible=1;marginBottom=0;" parent="1" vertex="1">
          <mxGeometry x="60" y="250" width="160" height="60" as="geometry" />
        </mxCell>
        <mxCell id="ppAjksbt9P0SLpbkr_-q-10" value="" style="line;strokeWidth=1;fillColor=none;align=left;verticalAlign=middle;spacingTop=-1;spacingLeft=3;spacingRight=3;rotatable=0;labelPosition=right;points=[];portConstraint=eastwest;" parent="ppAjksbt9P0SLpbkr_-q-8" vertex="1">
          <mxGeometry y="26" width="160" height="8" as="geometry" />
        </mxCell>
        <mxCell id="ppAjksbt9P0SLpbkr_-q-11" value="+ operate():void" style="text;strokeColor=none;fillColor=none;align=left;verticalAlign=top;spacingLeft=4;spacingRight=4;overflow=hidden;rotatable=0;points=[[0,0.5],[1,0.5]];portConstraint=eastwest;" parent="ppAjksbt9P0SLpbkr_-q-8" vertex="1">
          <mxGeometry y="34" width="160" height="26" as="geometry" />
        </mxCell>
        <mxCell id="ppAjksbt9P0SLpbkr_-q-17" value="" style="group" parent="1" vertex="1" connectable="0">
          <mxGeometry x="210" y="90" width="150" height="70" as="geometry" />
        </mxCell>
        <mxCell id="ppAjksbt9P0SLpbkr_-q-1" value="«interface»&lt;br&gt;&lt;b&gt;Componet&lt;br&gt;&lt;br&gt;&lt;/b&gt;" style="html=1;" parent="ppAjksbt9P0SLpbkr_-q-17" vertex="1">
          <mxGeometry width="150" height="50" as="geometry" />
        </mxCell>
        <mxCell id="ppAjksbt9P0SLpbkr_-q-16" value="+ operate():void" style="html=1;" parent="ppAjksbt9P0SLpbkr_-q-17" vertex="1">
          <mxGeometry y="50" width="150" height="20" as="geometry" />
        </mxCell>
        <mxCell id="esg3S6d8dLZwqv9ZPssP-12" style="edgeStyle=none;rounded=0;orthogonalLoop=1;jettySize=auto;html=1;exitX=0.5;exitY=0;exitDx=0;exitDy=0;entryX=0.75;entryY=1;entryDx=0;entryDy=0;dashed=1;endArrow=block;endFill=0;endSize=12;strokeWidth=1;" parent="1" source="esg3S6d8dLZwqv9ZPssP-5" target="ppAjksbt9P0SLpbkr_-q-16" edge="1">
          <mxGeometry relative="1" as="geometry" />
        </mxCell>
        <mxCell id="esg3S6d8dLZwqv9ZPssP-5" value="AbstractDecorator" style="swimlane;fontStyle=1;align=center;verticalAlign=top;childLayout=stackLayout;horizontal=1;startSize=26;horizontalStack=0;resizeParent=1;resizeParentMax=0;resizeLast=0;collapsible=1;marginBottom=0;" parent="1" vertex="1">
          <mxGeometry x="360" y="254" width="206" height="110" as="geometry" />
        </mxCell>
        <mxCell id="esg3S6d8dLZwqv9ZPssP-6" value="- component: Component" style="text;strokeColor=none;fillColor=none;align=left;verticalAlign=top;spacingLeft=4;spacingRight=4;overflow=hidden;rotatable=0;points=[[0,0.5],[1,0.5]];portConstraint=eastwest;" parent="esg3S6d8dLZwqv9ZPssP-5" vertex="1">
          <mxGeometry y="26" width="206" height="26" as="geometry" />
        </mxCell>
        <mxCell id="esg3S6d8dLZwqv9ZPssP-7" value="" style="line;strokeWidth=1;fillColor=none;align=left;verticalAlign=middle;spacingTop=-1;spacingLeft=3;spacingRight=3;rotatable=0;labelPosition=right;points=[];portConstraint=eastwest;" parent="esg3S6d8dLZwqv9ZPssP-5" vertex="1">
          <mxGeometry y="52" width="206" height="8" as="geometry" />
        </mxCell>
        <mxCell id="esg3S6d8dLZwqv9ZPssP-8" value="+ operate(): void&#xa;+ AbstractDecorator(Component)" style="text;strokeColor=none;fillColor=none;align=left;verticalAlign=top;spacingLeft=4;spacingRight=4;overflow=hidden;rotatable=0;points=[[0,0.5],[1,0.5]];portConstraint=eastwest;" parent="esg3S6d8dLZwqv9ZPssP-5" vertex="1">
          <mxGeometry y="60" width="206" height="50" as="geometry" />
        </mxCell>
        <mxCell id="esg3S6d8dLZwqv9ZPssP-13" style="edgeStyle=orthogonalEdgeStyle;rounded=0;orthogonalLoop=1;jettySize=auto;html=1;exitX=1;exitY=0.5;exitDx=0;exitDy=0;entryX=0.75;entryY=0;entryDx=0;entryDy=0;endArrow=diamondThin;endFill=0;endSize=12;strokeWidth=1;" parent="1" source="ppAjksbt9P0SLpbkr_-q-1" target="esg3S6d8dLZwqv9ZPssP-5" edge="1">
          <mxGeometry relative="1" as="geometry" />
        </mxCell>
        <mxCell id="esg3S6d8dLZwqv9ZPssP-19" style="edgeStyle=orthogonalEdgeStyle;rounded=0;orthogonalLoop=1;jettySize=auto;html=1;exitX=0.5;exitY=0;exitDx=0;exitDy=0;entryX=0.524;entryY=1.02;entryDx=0;entryDy=0;entryPerimeter=0;endArrow=block;endFill=0;endSize=12;strokeWidth=1;" parent="1" source="esg3S6d8dLZwqv9ZPssP-14" target="esg3S6d8dLZwqv9ZPssP-8" edge="1">
          <mxGeometry relative="1" as="geometry" />
        </mxCell>
        <mxCell id="esg3S6d8dLZwqv9ZPssP-14" value="DecoratorA&#xa;" style="swimlane;fontStyle=1;align=center;verticalAlign=top;childLayout=stackLayout;horizontal=1;startSize=26;horizontalStack=0;resizeParent=1;resizeParentMax=0;resizeLast=0;collapsible=1;marginBottom=0;" parent="1" vertex="1">
          <mxGeometry x="360" y="500" width="160" height="86" as="geometry" />
        </mxCell>
        <mxCell id="esg3S6d8dLZwqv9ZPssP-16" value="" style="line;strokeWidth=1;fillColor=none;align=left;verticalAlign=middle;spacingTop=-1;spacingLeft=3;spacingRight=3;rotatable=0;labelPosition=right;points=[];portConstraint=eastwest;" parent="esg3S6d8dLZwqv9ZPssP-14" vertex="1">
          <mxGeometry y="26" width="160" height="8" as="geometry" />
        </mxCell>
        <mxCell id="esg3S6d8dLZwqv9ZPssP-17" value="+ operate():void" style="text;strokeColor=none;fillColor=none;align=left;verticalAlign=top;spacingLeft=4;spacingRight=4;overflow=hidden;rotatable=0;points=[[0,0.5],[1,0.5]];portConstraint=eastwest;" parent="esg3S6d8dLZwqv9ZPssP-14" vertex="1">
          <mxGeometry y="34" width="160" height="26" as="geometry" />
        </mxCell>
        <mxCell id="esg3S6d8dLZwqv9ZPssP-21" value="+ addedFunction():void" style="text;strokeColor=none;fillColor=none;align=left;verticalAlign=top;spacingLeft=4;spacingRight=4;overflow=hidden;rotatable=0;points=[[0,0.5],[1,0.5]];portConstraint=eastwest;" parent="esg3S6d8dLZwqv9ZPssP-14" vertex="1">
          <mxGeometry y="60" width="160" height="26" as="geometry" />
        </mxCell>
        <mxCell id="esg3S6d8dLZwqv9ZPssP-22" style="rounded=0;orthogonalLoop=1;jettySize=auto;html=1;exitX=0;exitY=0;exitDx=140;exitDy=67.5;exitPerimeter=0;endArrow=none;endFill=0;endSize=12;strokeWidth=1;dashed=1;" parent="1" source="esg3S6d8dLZwqv9ZPssP-20" edge="1">
          <mxGeometry relative="1" as="geometry">
            <mxPoint x="360" y="550" as="targetPoint" />
          </mxGeometry>
        </mxCell>
        <mxCell id="esg3S6d8dLZwqv9ZPssP-20" value="public void operator(){&lt;br&gt;&amp;nbsp; component.operation();&lt;br&gt;addedFunction()&lt;br&gt;&lt;br&gt;}" style="shape=note2;boundedLbl=1;whiteSpace=wrap;html=1;size=25;verticalAlign=top;align=left;" parent="1" vertex="1">
          <mxGeometry x="80" y="420" width="140" height="110" as="geometry" />
        </mxCell>
      </root>
    </mxGraphModel>
  </diagram>
</mxfile>
